<svg data-v-d3f97b9e="" xmlns="http://www.w3.org/2000/svg" viewBox="0 0 726 90"><!----><!----><!----><g data-v-d3f97b9e="" id="c9865b44-1e5e-449b-8f20-2ee5e3a705c9" fill="white" transform="matrix(5.6550421714782715,0,0,5.6550421714782715,152.6138153076172,-22.11121368408203)"><path d="M4.19 14.52C6.52 14.52 7.85 13.26 7.85 11.41C7.85 9.80 6.93 8.92 4.96 8.57L4.05 8.40C3.11 8.23 2.69 7.92 2.69 7.18C2.69 6.45 3.23 6.03 4.28 6.03C5.32 6.03 5.99 6.44 6.47 7.04L7.73 5.85C6.94 4.91 5.85 4.41 4.38 4.41C2.20 4.41 0.84 5.54 0.84 7.29C0.84 8.89 1.79 9.83 3.77 10.14L4.69 10.28C5.71 10.46 6.02 10.86 6.02 11.52C6.02 12.35 5.43 12.89 4.30 12.89C3.29 12.89 2.46 12.47 1.79 11.69L0.55 12.89C1.37 13.86 2.52 14.52 4.19 14.52ZM10.49 5.98C11.21 5.98 11.54 5.60 11.54 5.08L11.54 4.80C11.54 4.28 11.21 3.91 10.49 3.91C9.74 3.91 9.44 4.28 9.44 4.80L9.44 5.08C9.44 5.60 9.74 5.98 10.49 5.98ZM9.59 14.35L11.38 14.35L11.38 7.04L9.59 7.04ZM13.45 14.35L15.25 14.35L15.25 13.13L15.30 13.13C15.58 13.96 16.35 14.52 17.32 14.52C19.17 14.52 20.19 13.13 20.19 10.68C20.19 8.25 19.17 6.87 17.32 6.87C16.35 6.87 15.57 7.41 15.30 8.25L15.25 8.25L15.25 3.99L13.45 3.99ZM16.74 13.03C15.89 13.03 15.25 12.60 15.25 11.84L15.25 9.52C15.25 8.81 15.89 8.34 16.74 8.34C17.67 8.34 18.31 9.03 18.31 10.07L18.31 11.33C18.31 12.36 17.67 13.03 16.74 13.03ZM24.75 14.52C26.85 14.52 28.15 13.03 28.15 10.68C28.15 8.34 26.85 6.87 24.75 6.87C22.67 6.87 21.36 8.34 21.36 10.68C21.36 13.03 22.67 14.52 24.75 14.52ZM24.75 13.08C23.83 13.08 23.24 12.47 23.24 11.37L23.24 10.01C23.24 8.92 23.83 8.32 24.75 8.32C25.69 8.32 26.28 8.92 26.28 10.01L26.28 11.37C26.28 12.47 25.69 13.08 24.75 13.08ZM31.53 14.35L31.53 9.87C31.53 9.07 32.16 8.74 33.36 8.74L33.92 8.74L33.92 7.04L33.53 7.04C32.37 7.04 31.78 7.78 31.60 8.55L31.53 8.55L31.53 7.04L29.74 7.04L29.74 14.35ZM38.07 14.52C40.17 14.52 41.47 13.03 41.47 10.68C41.47 8.34 40.17 6.87 38.07 6.87C35.98 6.87 34.68 8.34 34.68 10.68C34.68 13.03 35.98 14.52 38.07 14.52ZM38.07 13.08C37.14 13.08 36.55 12.47 36.55 11.37L36.55 10.01C36.55 8.92 37.14 8.32 38.07 8.32C39.00 8.32 39.59 8.92 39.59 10.01L39.59 11.37C39.59 12.47 39.00 13.08 38.07 13.08ZM50.50 14.35L50.50 12.87L49.20 12.87L49.20 6.06L50.50 6.06L50.50 4.58L46.06 4.58L46.06 6.06L47.35 6.06L47.35 12.87L46.06 12.87L46.06 14.35ZM54.07 14.35L54.07 9.52C54.07 8.74 54.78 8.34 55.52 8.34C56.38 8.34 56.73 8.88 56.73 9.91L56.73 14.35L58.52 14.35L58.52 9.73C58.52 7.91 57.68 6.87 56.18 6.87C55.05 6.87 54.43 7.48 54.14 8.26L54.07 8.26L54.07 7.04L52.28 7.04L52.28 14.35ZM62.90 14.52C64.72 14.52 65.91 13.54 65.91 12.12C65.91 10.91 65.14 10.19 63.55 9.97L62.80 9.87C62.12 9.76 61.85 9.53 61.85 9.04C61.85 8.60 62.19 8.29 62.96 8.29C63.67 8.29 64.29 8.62 64.71 9.07L65.76 8.02C65.06 7.29 64.33 6.87 62.90 6.87C61.24 6.87 60.13 7.77 60.13 9.18C60.13 10.51 61.00 11.20 62.57 11.40L63.29 11.49C63.94 11.58 64.19 11.84 64.19 12.26C64.19 12.78 63.83 13.10 62.97 13.10C62.15 13.10 61.50 12.73 60.97 12.11L59.88 13.17C60.61 14.01 61.52 14.52 62.90 14.52ZM69.66 14.35L70.95 14.35L70.95 12.92L69.57 12.92L69.57 8.47L71.06 8.47L71.06 7.04L69.57 7.04L69.57 5.04L67.96 5.04L67.96 6.29C67.96 6.79 67.79 7.04 67.26 7.04L66.70 7.04L66.70 8.47L67.77 8.47L67.77 12.49C67.77 13.68 68.43 14.35 69.66 14.35ZM73.51 5.98C74.24 5.98 74.56 5.60 74.56 5.08L74.56 4.80C74.56 4.28 74.24 3.91 73.51 3.91C72.77 3.91 72.46 4.28 72.46 4.80L72.46 5.08C72.46 5.60 72.77 5.98 73.51 5.98ZM72.62 14.35L74.41 14.35L74.41 7.04L72.62 7.04ZM78.76 14.35L80.05 14.35L80.05 12.92L78.67 12.92L78.67 8.47L80.16 8.47L80.16 7.04L78.67 7.04L78.67 5.04L77.06 5.04L77.06 6.29C77.06 6.79 76.89 7.04 76.36 7.04L75.80 7.04L75.80 8.47L76.87 8.47L76.87 12.49C76.87 13.68 77.53 14.35 78.76 14.35ZM86.09 14.35L87.88 14.35L87.88 7.04L86.09 7.04L86.09 11.87C86.09 12.66 85.37 13.03 84.66 13.03C83.80 13.03 83.43 12.49 83.43 11.48L83.43 7.04L81.63 7.04L81.63 11.66C81.63 13.48 82.47 14.52 83.97 14.52C85.18 14.52 85.76 13.86 86.02 13.13L86.09 13.13ZM92.23 14.35L93.52 14.35L93.52 12.92L92.13 12.92L92.13 8.47L93.63 8.47L93.63 7.04L92.13 7.04L92.13 5.04L90.52 5.04L90.52 6.29C90.52 6.79 90.36 7.04 89.82 7.04L89.26 7.04L89.26 8.47L90.34 8.47L90.34 12.49C90.34 13.68 91.00 14.35 92.23 14.35ZM98.08 14.52C99.44 14.52 100.51 14 101.11 13.17L100.14 12.10C99.69 12.67 99.16 13.09 98.28 13.09C97.10 13.09 96.50 12.38 96.50 11.33L96.50 11.14L101.36 11.14L101.36 10.56C101.36 8.55 100.31 6.87 98.03 6.87C95.89 6.87 94.64 8.37 94.64 10.68C94.64 13.02 95.93 14.52 98.08 14.52ZM98.06 8.22C98.98 8.22 99.50 8.90 99.50 9.91L99.50 10.04L96.50 10.04L96.50 9.93C96.50 8.92 97.12 8.22 98.06 8.22Z"></path></g><!----><g data-v-d3f97b9e="" id="ad16af96-3835-4713-980e-f52d4e4f1444" transform="matrix(2.045454502105713,0,0,2.045454502105713,-33.44972610473633,-57.27272415161133)" stroke="none" fill="white"><switch><g><path d="M61.54 28h21.637v21.637H61.54V28zM39.181 72h21.637V50.363H39.181V72zm-22.358 0H38.46V50.363H16.823V72zm22.358-22.363h21.637V28H39.181v21.637z"></path></g></switch></g><!----><g data-v-d3f97b9e="" id="5c1020ff-488e-4b2e-93bc-ab767530d146" fill="white" transform="matrix(1.8100801706314087,0,0,1.8100801706314087,155.21730041503906,55.565303802490234)"><path d="M0.28 3.21L2.80 3.21L2.80 12.60L3.22 12.60L3.22 3.21L5.74 3.21L5.74 2.80L0.28 2.80ZM13.58 7.70C13.58 6.38 13.99 5.29 14.80 4.41C15.61 3.53 16.64 3.09 17.88 3.09C19.12 3.09 20.15 3.53 20.96 4.41C21.77 5.29 22.18 6.38 22.18 7.70C22.18 9.02 21.77 10.11 20.96 10.99C20.15 11.87 19.12 12.31 17.88 12.31C16.64 12.31 15.61 11.87 14.80 10.99C13.99 10.11 13.58 9.02 13.58 7.70ZM13.16 7.70C13.16 9.16 13.61 10.36 14.50 11.30C15.39 12.24 16.52 12.71 17.88 12.71C19.24 12.71 20.37 12.24 21.26 11.30C22.15 10.36 22.60 9.16 22.60 7.70C22.60 6.24 22.15 5.04 21.26 4.10C20.37 3.16 19.24 2.69 17.88 2.69C16.52 2.69 15.39 3.16 14.50 4.10C13.61 5.04 13.16 6.24 13.16 7.70ZM51.00 3.86L51.86 12.60L52.28 12.60L51.23 2.45L47.31 10.70L43.39 2.45L42.34 12.60L42.76 12.60L43.61 3.86L47.31 11.69ZM64.60 2.45L60.33 12.60L60.82 12.60L62.09 9.52L67.10 9.52L68.38 12.60L68.87 12.60ZM64.60 3.50L66.91 9.07L62.29 9.07ZM77.27 2.80L77.27 12.60L77.69 12.60L77.69 7.56L82.12 12.60L82.71 12.60L78.12 7.39L82.50 2.80L81.93 2.80L77.69 7.24L77.69 2.80ZM91.60 7.48L95.94 7.48L95.94 7.08L91.60 7.08L91.60 3.21L96.22 3.21L96.22 2.80L91.18 2.80L91.18 12.60L96.22 12.60L96.22 12.19L91.60 12.19ZM125.05 3.86L125.90 12.60L126.32 12.60L125.27 2.45L121.35 10.70L117.43 2.45L116.38 12.60L116.80 12.60L117.66 3.86L121.35 11.69ZM138.64 2.45L134.37 12.60L134.86 12.60L136.14 9.52L141.15 9.52L142.42 12.60L142.91 12.60ZM138.64 3.50L140.95 9.07L136.33 9.07ZM158.31 2.80L158.31 11.79L150.82 2.45L150.82 12.60L151.24 12.60L151.24 3.61L158.73 12.95L158.73 2.80ZM181.59 11.69L178.36 2.80L177.91 2.80L181.62 12.95L184.56 3.79L187.50 12.95L191.21 2.80L190.76 2.80L187.53 11.69L184.56 2.45ZM199.75 2.80L199.75 12.60L200.17 12.60L200.17 7.62L206.40 7.62L206.40 12.60L206.82 12.60L206.82 2.80L206.40 2.80L206.40 7.18L200.17 7.18L200.17 2.80ZM216.20 7.70C216.20 6.38 216.61 5.29 217.42 4.41C218.23 3.53 219.26 3.09 220.50 3.09C221.74 3.09 222.77 3.53 223.58 4.41C224.39 5.29 224.80 6.38 224.80 7.70C224.80 9.02 224.39 10.11 223.58 10.99C222.77 11.87 221.74 12.31 220.50 12.31C219.26 12.31 218.23 11.87 217.42 10.99C216.61 10.11 216.20 9.02 216.20 7.70ZM215.78 7.70C215.78 9.16 216.23 10.36 217.12 11.30C218.01 12.24 219.14 12.71 220.50 12.71C221.86 12.71 222.99 12.24 223.88 11.30C224.77 10.36 225.22 9.16 225.22 7.70C225.22 6.24 224.77 5.04 223.88 4.10C222.99 3.16 221.86 2.69 220.50 2.69C219.14 2.69 218.01 3.16 217.12 4.10C216.23 5.04 215.78 6.24 215.78 7.70ZM234.18 2.80L234.18 12.60L238.66 12.60L238.66 12.19L234.60 12.19L234.60 2.80ZM247.62 7.48L251.96 7.48L251.96 7.08L247.62 7.08L247.62 3.21L252.24 3.21L252.24 2.80L247.20 2.80L247.20 12.60L252.24 12.60L252.24 12.19L247.62 12.19Z"></path></g></svg>